<svg xmlns="http://www.w3.org/2000/svg" xmlns:xlink="http://www.w3.org/1999/xlink" width="2000" zoomAndPan="magnify" viewBox="0 0 1500 1499.999933" height="2000" preserveAspectRatio="xMidYMid meet" version="1.0"><defs><g/><clipPath id="b2589e0ad4"><rect x="0" width="452" y="0" height="823"/></clipPath><clipPath id="be82fdc40c"><rect x="0" width="452" y="0" height="823"/></clipPath></defs><rect x="-150" width="1800" fill="#ffffff" y="-149.999993" height="1799.99992" fill-opacity="1"/><rect x="-150" width="1800" fill="#000000" y="-149.999993" height="1799.99992" fill-opacity="1"/><g transform="matrix(1, 0, 0, 1, 308, 381)"><g clip-path="url(#b2589e0ad4)"><g fill="#06b6d4" fill-opacity="1"><g transform="translate(1.402402, 666.378212)"><g><path d="M 49.21875 0 L 49.21875 -506.21875 L 155.203125 -506.21875 L 155.203125 -81.921875 L 426.8125 -81.921875 L 426.8125 0 Z M 49.21875 0 "/></g></g></g></g></g><g transform="matrix(1, 0, 0, 1, 740, 296)"><g clip-path="url(#be82fdc40c)"><g fill="#06b6d4" fill-opacity="1"><g transform="translate(450.593869, 156.613826)"><g><path d="M -49.21875 0 L -49.21875 506.21875 L -155.203125 506.21875 L -155.203125 81.921875 L -426.8125 81.921875 L -426.8125 0 Z M -49.21875 0 "/></g></g></g></g></g></svg>